<?xml version="1.0" standalone="no"?>
<!DOCTYPE svg PUBLIC "-//W3C//DTD SVG 20010904//EN"
 "http://www.w3.org/TR/2001/REC-SVG-20010904/DTD/svg10.dtd">
<svg version="1.0" xmlns="http://www.w3.org/2000/svg"
 width="536.000000pt" height="116.000000pt" viewBox="0 0 536.000000 116.000000"
 preserveAspectRatio="xMidYMid meet">

<g transform="translate(0.000000,116.000000) scale(0.100000,-0.100000)"
fill="#000000" stroke="none">
<path d="M2470 1120 c0 -28 35 -73 65 -86 47 -19 273 -19 319 0 36 15 66 50
66 78 0 17 -16 18 -225 18 -150 0 -225 -3 -225 -10z"/>
<path d="M195 1078 c-56 -30 -55 -19 -55 -465 l0 -413 50 0 49 0 3 109 3 109
115 -71 c120 -75 227 -167 216 -186 -5 -7 -86 -11 -250 -11 -228 0 -245 -1
-269 -20 -14 -11 -30 -33 -35 -50 l-11 -30 334 0 333 0 7 49 c16 115 -42 191
-250 326 -128 84 -195 141 -195 166 0 5 7 25 15 44 33 81 184 205 350 288 86
43 112 70 121 126 7 42 6 43 -17 36 -96 -27 -370 -187 -428 -249 -14 -14 -28
-26 -33 -26 -4 0 -8 63 -8 140 0 147 -2 152 -45 128z"/>
<path d="M1065 1075 c-129 -38 -225 -139 -260 -271 -18 -68 -21 -382 -5 -452
38 -163 177 -285 341 -299 176 -15 331 86 395 257 22 59 32 373 14 463 -16 82
-63 169 -118 218 -45 40 -125 82 -174 93 -24 5 -28 3 -28 -14 0 -46 29 -88 83
-123 63 -41 111 -104 127 -169 7 -28 10 -115 8 -234 -3 -188 -3 -189 -32 -242
-53 -95 -135 -143 -243 -143 -116 0 -221 73 -257 179 -23 65 -23 399 0 464 19
57 74 123 125 148 49 26 71 59 67 103 l-3 34 -40 -12z"/>
<path d="M1810 1078 c0 -25 40 -78 62 -83 13 -2 58 -9 101 -15 136 -18 258
-101 312 -215 43 -92 45 -87 -45 -155 -44 -33 -84 -59 -89 -56 -5 3 -116 123
-246 266 -252 275 -257 278 -271 204 -4 -23 -1 -44 12 -68 11 -19 107 -130
214 -247 107 -116 195 -217 195 -223 0 -6 -83 -70 -185 -143 -102 -73 -195
-144 -207 -158 -24 -27 -31 -87 -14 -113 6 -10 91 46 331 218 177 127 328 234
336 237 33 12 -15 -140 -64 -206 -74 -98 -160 -146 -288 -163 l-84 -12 0 -48
0 -48 58 0 c216 0 412 152 476 369 20 68 21 227 2 297 -46 172 -189 314 -361
359 -74 19 -245 21 -245 3z"/>
<path d="M3301 1074 c-170 -46 -308 -180 -356 -348 -25 -85 -23 -241 4 -326
52 -164 187 -290 358 -335 66 -17 243 -21 243 -5 0 23 -29 66 -52 77 -12 6
-60 16 -106 22 -146 19 -259 94 -315 211 -47 99 -47 98 39 160 43 30 80 56 84
58 4 1 116 -117 249 -263 134 -146 247 -262 252 -260 17 11 31 79 21 106 -8
20 -225 265 -403 454 l-29 31 199 142 c110 79 205 150 213 159 13 16 18 106 6
118 -3 4 -152 -98 -329 -225 -178 -128 -329 -234 -336 -237 -18 -7 -16 15 6
88 52 165 180 265 364 284 l67 7 0 49 0 49 -62 -1 c-35 0 -87 -7 -117 -15z"/>
<path d="M4090 1075 c-138 -39 -238 -141 -274 -280 -21 -77 -22 -374 -2 -456
31 -134 149 -254 279 -285 26 -6 27 -4 27 31 0 39 -5 46 -116 140 -27 23 -57
61 -70 90 -22 47 -24 61 -24 250 0 189 2 203 24 250 27 60 72 107 130 138 58
31 184 31 241 0 47 -25 105 -84 131 -133 27 -50 34 -405 9 -479 -19 -58 -72
-123 -128 -156 -48 -28 -63 -48 -73 -100 l-7 -37 34 7 c109 23 228 125 271
232 21 55 23 71 23 278 0 203 -2 224 -22 273 -75 183 -273 287 -453 237z"/>
<path d="M4684 1078 c-4 -6 -7 -36 -8 -67 0 -105 62 -179 247 -294 117 -73
197 -141 197 -168 0 -83 -162 -230 -366 -332 -86 -43 -114 -75 -114 -128 0
-22 3 -39 8 -39 4 0 53 23 110 50 114 55 256 144 317 199 l40 36 3 -143 c2
-90 6 -142 13 -142 18 0 53 22 71 44 16 19 18 58 18 434 l0 412 -50 0 -49 0
-3 -109 -3 -110 -115 72 c-121 76 -210 152 -210 180 0 15 22 17 245 17 l245 0
29 28 c16 15 32 37 36 50 l6 22 -330 0 c-240 0 -332 -3 -337 -12z"/>
<path d="M2640 550 l0 -430 -35 0 c-52 0 -102 -24 -119 -59 -9 -16 -16 -35
-16 -41 0 -7 75 -10 225 -10 209 0 225 1 225 18 0 47 -66 92 -135 92 l-35 0 0
430 0 430 -55 0 -55 0 0 -430z"/>
<path d="M3950 575 l0 -55 235 0 235 0 0 55 0 55 -235 0 -235 0 0 -55z"/>
<path d="M940 560 l0 -50 235 0 235 0 0 50 0 50 -235 0 -235 0 0 -50z"/>
</g>
</svg>
